<?xml version="1.0" standalone="no"?><!DOCTYPE svg PUBLIC "-//W3C//DTD SVG 1.1//EN" "http://www.w3.org/Graphics/SVG/1.1/DTD/svg11.dtd"><svg xmlns:xlink="http://www.w3.org/1999/xlink" version="1.1" class="highcharts-root" style="font-family:&quot;Lucida Grande&quot;, &quot;Lucida Sans Unicode&quot;, Arial, Helvetica, sans-serif;font-size:12px;" xmlns="http://www.w3.org/2000/svg" width="600" height="400" viewBox="0 0 600 400" aria-label="Interactive chart" aria-hidden="false"><desc aria-hidden="true">Created with Highcharts 8.0.0</desc><defs aria-hidden="true"><clipPath id="highcharts-lbb5chb-20-"><rect x="0" y="0" width="580" height="280" fill="none"></rect></clipPath></defs><rect fill="#ffffff" class="highcharts-background" x="0" y="0" width="600" height="400" rx="0" ry="0" aria-hidden="true"></rect><rect fill="none" class="highcharts-plot-background" x="10" y="10" width="580" height="280" aria-hidden="true"></rect><rect fill="none" class="highcharts-plot-border" data-z-index="1" x="10" y="10" width="580" height="280" aria-hidden="true"></rect><g class="highcharts-series-group" data-z-index="3" aria-hidden="false"><g data-z-index="0.1" class="highcharts-series highcharts-series-0 highcharts-item-series" transform="translate(10,10) scale(1 1)" aria-hidden="false" aria-label=""><g class="highcharts-point highcharts-color-0" fill="#EB001F" x="0" y="0" r="0" innerR="0" start="0" end="0" tabindex="-1" role="img" aria-label="1. Parti Socialiste, 16."><path fill="#EB001F" d="M 94.1232571505706 278.3559873557191 A 12.5 12.5 0 1 1 94.13575714848727 278.3559811057196 Z" stroke="#ffffff" stroke-width="1" opacity="1"></path><path fill="#EB001F" d="M 122.04255694846668 273.4330615188617 A 12.5 12.5 0 1 1 122.05505694638336 273.4330552688622 Z" stroke="#ffffff" stroke-width="1" opacity="1"></path><path fill="#EB001F" d="M 149.96185674636277 268.51013568200415 A 12.5 12.5 0 1 1 149.97435674427945 268.51012943200465 Z" stroke="#ffffff" stroke-width="1" opacity="1"></path><path fill="#EB001F" d="M 177.8811565442589 263.58720984514673 A 12.5 12.5 0 1 1 177.8936565421756 263.58720359514723 Z" stroke="#ffffff" stroke-width="1" opacity="1"></path><path fill="#EB001F" d="M 91.15156391657152 248.32987637336507 A 12.5 12.5 0 1 1 91.1640639144882 248.3298701233656 Z" stroke="#ffffff" stroke-width="1" opacity="1"></path><path fill="#EB001F" d="M 119.44999999999999 243.80000000000004 A 12.5 12.5 0 1 1 119.46249999791667 243.79999375000057 Z" stroke="#ffffff" stroke-width="1" opacity="1"></path><path fill="#EB001F" d="M 147.93543806890162 237.59296117791266 A 12.5 12.5 0 1 1 147.9479380668183 237.59295492791318 Z" stroke="#ffffff" stroke-width="1" opacity="1"></path><path fill="#EB001F" d="M 176.6528387944044 233.1068192575077 A 12.5 12.5 0 1 1 176.66533879232108 233.10681300750824 Z" stroke="#ffffff" stroke-width="1" opacity="1"></path><path fill="#EB001F" d="M 92.75355110167465 218.19962681481658 A 12.5 12.5 0 1 1 92.76605109959132 218.1996205648171 Z" stroke="#ffffff" stroke-width="1" opacity="1"></path><path fill="#EB001F" d="M 122.04255694846668 214.16693848113832 A 12.5 12.5 0 1 1 122.05505694638336 214.16693223113884 Z" stroke="#ffffff" stroke-width="1" opacity="1"></path><path fill="#EB001F" d="M 152.64875491906557 206.9700498819113 A 12.5 12.5 0 1 1 152.66125491698224 206.97004363191184 Z" stroke="#ffffff" stroke-width="1" opacity="1"></path><path fill="#EB001F" d="M 98.89239018104004 188.65791128982892 A 12.5 12.5 0 1 1 98.90489017895672 188.65790503982944 Z" stroke="#ffffff" stroke-width="1" opacity="1"></path><path fill="#EB001F" d="M 129.7414542628847 185.43426254147465 A 12.5 12.5 0 1 1 129.75395426080138 185.43425629147518 Z" stroke="#ffffff" stroke-width="1" opacity="1"></path><path fill="#EB001F" d="M 183.55489914599698 203.39277312150307 A 12.5 12.5 0 1 1 183.56739914391366 203.3927668715036 Z" stroke="#ffffff" stroke-width="1" opacity="1"></path><path fill="#EB001F" d="M 109.42695369146148 160.38387243708385 A 12.5 12.5 0 1 1 109.43945368937815 160.38386618708438 Z" stroke="#ffffff" stroke-width="1" opacity="1"></path><path fill="#EB001F" d="M 163.878358438739 178.09317233665465 A 12.5 12.5 0 1 1 163.8908584366557 178.09316608665517 Z" stroke="#ffffff" stroke-width="1" opacity="1"></path></g><g class="highcharts-point highcharts-color-1" fill="#33cc33" x="0" y="0" r="0" innerR="0" start="0" end="0" tabindex="-1" role="img" aria-label="2. Les Verts, 14."><path fill="#33cc33" d="M 142.31276484418552 158.475 A 12.5 12.5 0 1 1 142.3252648421022 158.47499375000052 Z" stroke="#ffffff" stroke-width="1" opacity="1"></path><path fill="#33cc33" d="M 124.11505964950678 134.02750992692563 A 12.5 12.5 0 1 1 124.12755964742345 134.02750367692613 Z" stroke="#ffffff" stroke-width="1" opacity="1"></path><path fill="#33cc33" d="M 198.09269004910138 176.57457760936512 A 12.5 12.5 0 1 1 198.10519004701806 176.57457135936565 Z" stroke="#ffffff" stroke-width="1" opacity="1"></path><path fill="#33cc33" d="M 159.37451578174637 134.10829440699206 A 12.5 12.5 0 1 1 159.38701577966305 134.1082881569926 Z" stroke="#ffffff" stroke-width="1" opacity="1"></path><path fill="#33cc33" d="M 181.09187574416939 152.33132314160545 A 12.5 12.5 0 1 1 181.10437574208606 152.33131689160598 Z" stroke="#ffffff" stroke-width="1" opacity="1"></path><path fill="#33cc33" d="M 142.61903913987052 110.19473743982627 A 12.5 12.5 0 1 1 142.6315391377872 110.1947311898268 Z" stroke="#ffffff" stroke-width="1" opacity="1"></path><path fill="#33cc33" d="M 180.40829440699204 113.07451578174638 A 12.5 12.5 0 1 1 180.42079440490872 113.07450953174691 Z" stroke="#ffffff" stroke-width="1" opacity="1"></path><path fill="#33cc33" d="M 164.51349907911546 89.43345314982045 A 12.5 12.5 0 1 1 164.52599907703214 89.43344689982098 Z" stroke="#ffffff" stroke-width="1" opacity="1"></path><path fill="#33cc33" d="M 219.2243367177297 154.57420297751193 A 12.5 12.5 0 1 1 219.23683671564638 154.57419672751246 Z" stroke="#ffffff" stroke-width="1" opacity="1"></path><path fill="#33cc33" d="M 203.47324865205903 130.9058196765572 A 12.5 12.5 0 1 1 203.4857486499757 130.90581342655773 Z" stroke="#ffffff" stroke-width="1" opacity="1"></path><path fill="#33cc33" d="M 189.2951016944885 72.22094394240452 A 12.5 12.5 0 1 1 189.30760169240517 72.22093769240504 Z" stroke="#ffffff" stroke-width="1" opacity="1"></path><path fill="#33cc33" d="M 204.77499999999995 96.01276484418554 A 12.5 12.5 0 1 1 204.78749999791663 96.01275859418607 Z" stroke="#ffffff" stroke-width="1" opacity="1"></path><path fill="#33cc33" d="M 229.9614213542984 114.8324019046847 A 12.5 12.5 0 1 1 229.9739213522151 114.83239565468523 Z" stroke="#ffffff" stroke-width="1" opacity="1"></path><path fill="#33cc33" d="M 245.43540480644444 138.96834239507697 A 12.5 12.5 0 1 1 245.44790480436112 138.9683361450775 Z" stroke="#ffffff" stroke-width="1" opacity="1"></path></g><g class="highcharts-point highcharts-color-2" fill="orange" x="0" y="0" r="0" innerR="0" start="0" end="0" tabindex="-1" role="img" aria-label="3. Parti démocrate-chrétien, 7."><path fill="orange" d="M 216.39413589467762 58.95291293480509 A 12.5 12.5 0 1 1 216.4066358925943 58.95290668480561 Z" stroke="#ffffff" stroke-width="1" opacity="1"></path><path fill="orange" d="M 231.73426254147458 83.44145426288472 A 12.5 12.5 0 1 1 231.74676253939126 83.44144801288525 Z" stroke="#ffffff" stroke-width="1" opacity="1"></path><path fill="orange" d="M 245.18761451507905 49.93438254797767 A 12.5 12.5 0 1 1 245.20011451299573 49.93437629797819 Z" stroke="#ffffff" stroke-width="1" opacity="1"></path><path fill="orange" d="M 259.3006429366079 104.87307818683345 A 12.5 12.5 0 1 1 259.3131429345246 104.87307193683398 Z" stroke="#ffffff" stroke-width="1" opacity="1"></path><path fill="orange" d="M 260.4669384811383 75.74255694846667 A 12.5 12.5 0 1 1 260.479438479055 75.7425506984672 Z" stroke="#ffffff" stroke-width="1" opacity="1"></path><path fill="orange" d="M 274.847434847954 130.87541562492873 A 12.5 12.5 0 1 1 274.85993484587067 130.87540937492923 Z" stroke="#ffffff" stroke-width="1" opacity="1"></path><path fill="orange" d="M 275.0135963413937 45.37268226211999 A 12.5 12.5 0 1 1 275.02609633931036 45.37267601212051 Z" stroke="#ffffff" stroke-width="1" opacity="1"></path></g><g class="highcharts-point highcharts-color-3" fill="#ccff66" x="0" y="0" r="0" innerR="0" start="0" end="0" tabindex="-1" role="img" aria-label="4. Parti vert-libéraux, 6."><path fill="#ccff66" d="M 290.1 73.14999999999998 A 12.5 12.5 0 1 1 290.1124999979167 73.1499937500005 Z" stroke="#ffffff" stroke-width="1" opacity="1"></path><path fill="#ccff66" d="M 290.1 101.49999999999997 A 12.5 12.5 0 1 1 290.1124999979167 101.4999937500005 Z" stroke="#ffffff" stroke-width="1" opacity="1"></path><path fill="#ccff66" d="M 305.1864036586063 45.37268226211999 A 12.5 12.5 0 1 1 305.198903656523 45.37267601212051 Z" stroke="#ffffff" stroke-width="1" opacity="1"></path><path fill="#ccff66" d="M 305.3525651520461 130.87541562492873 A 12.5 12.5 0 1 1 305.3650651499628 130.87540937492923 Z" stroke="#ffffff" stroke-width="1" opacity="1"></path><path fill="#ccff66" d="M 319.7330615188617 75.74255694846667 A 12.5 12.5 0 1 1 319.74556151677837 75.7425506984672 Z" stroke="#ffffff" stroke-width="1" opacity="1"></path><path fill="#ccff66" d="M 320.899357063392 104.87307818683345 A 12.5 12.5 0 1 1 320.9118570613087 104.87307193683398 Z" stroke="#ffffff" stroke-width="1" opacity="1"></path></g><g class="highcharts-point highcharts-color-4" fill="#009EE0" x="0" y="0" r="0" innerR="0" start="0" end="0" tabindex="-1" role="img" aria-label="5. Parti libéral-radical, 12."><path fill="#009EE0" d="M 335.01238548492086 49.93438254797764 A 12.5 12.5 0 1 1 335.02488548283753 49.93437629797816 Z" stroke="#ffffff" stroke-width="1" opacity="1"></path><path fill="#009EE0" d="M 348.4657374585253 83.44145426288469 A 12.5 12.5 0 1 1 348.478237456442 83.44144801288522 Z" stroke="#ffffff" stroke-width="1" opacity="1"></path><path fill="#009EE0" d="M 363.80586410532237 58.95291293480506 A 12.5 12.5 0 1 1 363.81836410323905 58.95290668480558 Z" stroke="#ffffff" stroke-width="1" opacity="1"></path><path fill="#009EE0" d="M 334.7645951935556 138.96834239507697 A 12.5 12.5 0 1 1 334.77709519147226 138.9683361450775 Z" stroke="#ffffff" stroke-width="1" opacity="1"></path><path fill="#009EE0" d="M 350.2385786457016 114.83240190468467 A 12.5 12.5 0 1 1 350.25107864361826 114.8323956546852 Z" stroke="#ffffff" stroke-width="1" opacity="1"></path><path fill="#009EE0" d="M 375.425 96.01276484418551 A 12.5 12.5 0 1 1 375.4374999979167 96.01275859418604 Z" stroke="#ffffff" stroke-width="1" opacity="1"></path><path fill="#009EE0" d="M 390.9048983055115 72.22094394240449 A 12.5 12.5 0 1 1 390.9173983034282 72.22093769240502 Z" stroke="#ffffff" stroke-width="1" opacity="1"></path><path fill="#009EE0" d="M 376.72675134794093 130.90581967655717 A 12.5 12.5 0 1 1 376.7392513458576 130.9058134265577 Z" stroke="#ffffff" stroke-width="1" opacity="1"></path><path fill="#009EE0" d="M 360.9756632822703 154.57420297751193 A 12.5 12.5 0 1 1 360.988163280187 154.57419672751246 Z" stroke="#ffffff" stroke-width="1" opacity="1"></path><path fill="#009EE0" d="M 415.6865009208845 89.4334531498204 A 12.5 12.5 0 1 1 415.6990009188012 89.43344689982092 Z" stroke="#ffffff" stroke-width="1" opacity="1"></path><path fill="#009EE0" d="M 399.7917055930079 113.07451578174636 A 12.5 12.5 0 1 1 399.8042055909246 113.07450953174688 Z" stroke="#ffffff" stroke-width="1" opacity="1"></path><path fill="#009EE0" d="M 437.5809608601294 110.19473743982616 A 12.5 12.5 0 1 1 437.59346085804606 110.19473118982668 Z" stroke="#ffffff" stroke-width="1" opacity="1"></path></g><g class="highcharts-point highcharts-color-5" fill="darkgreen" x="0.011448590446663798" y="0" r="0" innerR="0" start="0" end="0" tabindex="-1" role="img" aria-label="6. Union démocratique du centre, 15."><path fill="darkgreen" d="M 420.8254842182536 134.10829440699203 A 12.5 12.5 0 1 1 420.8379842161703 134.10828815699256 Z" stroke="#ffffff" stroke-width="1" opacity="1"></path><path fill="darkgreen" d="M 399.1081242558306 152.33132314160542 A 12.5 12.5 0 1 1 399.1206242537473 152.33131689160595 Z" stroke="#ffffff" stroke-width="1" opacity="1"></path><path fill="darkgreen" d="M 382.10730995089864 176.57457760936515 A 12.5 12.5 0 1 1 382.1198099488153 176.57457135936568 Z" stroke="#ffffff" stroke-width="1" opacity="1"></path><path fill="darkgreen" d="M 456.0849403504932 134.02750992692546 A 12.5 12.5 0 1 1 456.09744034840986 134.027503676926 Z" stroke="#ffffff" stroke-width="1" opacity="1"></path><path fill="darkgreen" d="M 437.88723515581444 158.47499999999994 A 12.5 12.5 0 1 1 437.8997351537311 158.47499375000046 Z" stroke="#ffffff" stroke-width="1" opacity="1"></path><path fill="darkgreen" d="M 416.32164156126095 178.0931723366546 A 12.5 12.5 0 1 1 416.3341415591776 178.09316608665512 Z" stroke="#ffffff" stroke-width="1" opacity="1"></path><path fill="darkgreen" d="M 470.7730463085385 160.3838724370838 A 12.5 12.5 0 1 1 470.78554630645516 160.38386618708432 Z" stroke="#ffffff" stroke-width="1" opacity="1"></path><path fill="darkgreen" d="M 396.64510085400303 203.39277312150304 A 12.5 12.5 0 1 1 396.6576008519197 203.39276687150357 Z" stroke="#ffffff" stroke-width="1" opacity="1"></path><path fill="darkgreen" d="M 450.4585457371153 185.43426254147454 A 12.5 12.5 0 1 1 450.47104573503196 185.43425629147507 Z" stroke="#ffffff" stroke-width="1" opacity="1"></path><path fill="darkgreen" d="M 481.3076098189599 188.65791128982886 A 12.5 12.5 0 1 1 481.3201098168766 188.6579050398294 Z" stroke="#ffffff" stroke-width="1" opacity="1"></path><path fill="darkgreen" d="M 427.55124508093445 206.97004988191125 A 12.5 12.5 0 1 1 427.5637450788511 206.97004363191178 Z" stroke="#ffffff" stroke-width="1" opacity="1"></path><path fill="darkgreen" d="M 458.15744305153333 214.1669384811383 A 12.5 12.5 0 1 1 458.16994304945 214.16693223113882 Z" stroke="#ffffff" stroke-width="1" opacity="1"></path><path fill="darkgreen" d="M 487.44644889832534 218.19962681481653 A 12.5 12.5 0 1 1 487.458948896242 218.19962056481705 Z" stroke="#ffffff" stroke-width="1" opacity="1"></path><path fill="darkgreen" d="M 403.5471612055956 233.10681925750774 A 12.5 12.5 0 1 1 403.5596612035123 233.10681300750826 Z" stroke="#ffffff" stroke-width="1" opacity="1"></path><path fill="darkgreen" d="M 432.2645619310984 237.5929611779126 A 12.5 12.5 0 1 1 432.2770619290151 237.59295492791313 Z" stroke="#ffffff" stroke-width="1" opacity="1"></path></g><g class="highcharts-point highcharts-color-6" fill="#000000" x="0" y="0" r="0" innerR="0" start="0" end="0" tabindex="-1" role="img" aria-label="7. Others, 6."><path fill="#000000" d="M 460.75 243.7999999999999 A 12.5 12.5 0 1 1 460.7624999979167 243.79999375000043 Z" stroke="#ffffff" stroke-width="1" opacity="1"></path><path fill="#000000" d="M 489.0484360834285 248.329876373365 A 12.5 12.5 0 1 1 489.0609360813452 248.32987012336554 Z" stroke="#ffffff" stroke-width="1" opacity="1"></path><path fill="#000000" d="M 486.0767428494295 278.3559873557191 A 12.5 12.5 0 1 1 486.08924284734616 278.3559811057196 Z" stroke="#ffffff" stroke-width="1" opacity="1"></path><path fill="#000000" d="M 458.15744305153333 273.43306151886156 A 12.5 12.5 0 1 1 458.16994304945 273.43305526886206 Z" stroke="#ffffff" stroke-width="1" opacity="1"></path><path fill="#000000" d="M 430.23814325363725 268.51013568200415 A 12.5 12.5 0 1 1 430.2506432515539 268.51012943200465 Z" stroke="#ffffff" stroke-width="1" opacity="1"></path><path fill="#000000" d="M 402.3188434557411 263.58720984514673 A 12.5 12.5 0 1 1 402.3313434536578 263.58720359514723 Z" stroke="#ffffff" stroke-width="1" opacity="1"></path></g></g><g data-z-index="0.1" class="highcharts-markers highcharts-series-0 highcharts-item-series" transform="translate(10,10) scale(1 1)" aria-hidden="true"></g></g><text x="300" text-anchor="middle" class="highcharts-title" data-z-index="4" style="color:#333333;font-size:18px;display:none;fill:#333333;" y="24" aria-hidden="true"><tspan>Chart title</tspan></text><text x="300" text-anchor="middle" class="highcharts-subtitle" data-z-index="4" style="color:#666666;fill:#666666;" y="24" aria-hidden="true"></text><text x="10" text-anchor="start" class="highcharts-caption" data-z-index="4" style="color:#666666;fill:#666666;" y="397" aria-hidden="true"></text><g data-z-index="6" class="highcharts-data-labels highcharts-series-0 highcharts-item-series" transform="translate(10,10) scale(1 1)" aria-hidden="true"><path fill="none" class="highcharts-data-label-connector highcharts-color-0" stroke="#EB001F" stroke-width="1" d="M 45.52583564641 184.4226058106079 C 50.52583564641 184.4226058106079 68.19196252495354 187.87339718523515 74.08067148446804 189.0236609767776 L 79.96938044398254 190.17392476832003"></path><path fill="none" class="highcharts-data-label-connector highcharts-color-1" stroke="#33cc33" stroke-width="1" d="M 129.8834054367678 42.8523371764177 C 134.8834054367678 42.8523371764177 146.3264329045472 56.746836892911475 150.14077539380702 61.3783367984094 L 153.95511788306683 66.00983670390733"></path><path fill="none" class="highcharts-data-label-connector highcharts-color-2" stroke="orange" stroke-width="1" d="M 234.92745650426508 0 C 239.92745650426508 0 243.62133266378657 10.009992956017904 244.85262471696038 15.88229402798203 L 246.08391677013418 21.754595099946158"></path><path fill="none" class="highcharts-data-label-connector highcharts-color-3" stroke="#ccff66" stroke-width="1" d="M 317.38219355182446 0 C 312.38219355182446 0 310.73104812587013 6.152841289646894 310.1806663172187 12.12754461824034 L 309.6302845085673 18.102247946833785"></path><path fill="none" class="highcharts-data-label-connector highcharts-color-4" stroke="#009EE0" stroke-width="1" d="M 423.8571301868857 24 C 418.8571301868857 24 399.3853548923737 33.43538199397379 396.4813189217797 38.685770082629354 L 393.5772829511857 43.936158171284916"></path><path fill="none" class="highcharts-data-label-connector highcharts-color-5" stroke="darkgreen" stroke-width="1" d="M 515.1825394166899 126.05415207428393 C 510.1825394166899 126.05415207428393 493.93956519742585 133.81081298683674 488.5252404576712 136.39636662435436 L 483.11091571791655 138.98192026187198"></path><path fill="none" class="highcharts-data-label-connector highcharts-color-6" stroke="#000000" stroke-width="1" d="M 538.8353057320635 240.16346353543642 C 533.8353057320635 240.16346353543642 515.8474553092065 239.5022244221665 509.85150516825405 239.28181138440988 L 503.85555502730165 239.06139834665325"></path><g class="highcharts-label highcharts-data-label highcharts-data-label-color-0" data-z-index="1" transform="translate(17,174)"><text x="5" data-z-index="1" style="font-size:11px;font-weight:bold;color:#000000;fill:#000000;" y="16"><tspan x="5" y="16" class="highcharts-text-outline" fill="#FFFFFF" stroke="#FFFFFF" stroke-width="2px" stroke-linejoin="round" style="">PS</tspan><tspan x="5" y="16">PS</tspan></text></g><g class="highcharts-label highcharts-data-label highcharts-data-label-color-1" data-z-index="1" transform="translate(79,33)"><text x="5" data-z-index="1" style="font-size:11px;font-weight:bold;color:#000000;fill:#000000;" y="16"><tspan x="5" y="16" class="highcharts-text-outline" fill="#FFFFFF" stroke="#FFFFFF" stroke-width="2px" stroke-linejoin="round" style="">VERTS</tspan><tspan x="5" y="16">VERTS</tspan></text></g><g class="highcharts-label highcharts-data-label highcharts-data-label-color-2" data-z-index="1" transform="translate(196,-10)"><text x="5" data-z-index="1" style="font-size:11px;font-weight:bold;color:#000000;fill:#000000;" y="16"><tspan x="5" y="16" class="highcharts-text-outline" fill="#FFFFFF" stroke="#FFFFFF" stroke-width="2px" stroke-linejoin="round" style="">PDC</tspan><tspan x="5" y="16">PDC</tspan></text></g><g class="highcharts-label highcharts-data-label highcharts-data-label-color-3" data-z-index="1" transform="translate(322,-10)"><text x="5" data-z-index="1" style="font-size:11px;font-weight:bold;color:#000000;fill:#000000;" y="16"><tspan x="5" y="16" class="highcharts-text-outline" fill="#FFFFFF" stroke="#FFFFFF" stroke-width="2px" stroke-linejoin="round" style="">PVL</tspan><tspan x="5" y="16">PVL</tspan></text></g><g class="highcharts-label highcharts-data-label highcharts-data-label-color-4" data-z-index="1" transform="translate(429,14)"><text x="5" data-z-index="1" style="font-size:11px;font-weight:bold;color:#000000;fill:#000000;" y="16"><tspan x="5" y="16" class="highcharts-text-outline" fill="#FFFFFF" stroke="#FFFFFF" stroke-width="2px" stroke-linejoin="round" style="">PLR</tspan><tspan x="5" y="16">PLR</tspan></text></g><g class="highcharts-label highcharts-data-label highcharts-data-label-color-5" data-z-index="1" transform="translate(520,116)"><text x="5" data-z-index="1" style="font-size:11px;font-weight:bold;color:#000000;fill:#000000;" y="16"><tspan x="5" y="16" class="highcharts-text-outline" fill="#FFFFFF" stroke="#FFFFFF" stroke-width="2px" stroke-linejoin="round" style="">UDC</tspan><tspan x="5" y="16">UDC</tspan></text></g><g class="highcharts-label highcharts-data-label highcharts-data-label-color-6" data-z-index="1" transform="translate(544,230)"><text x="5" data-z-index="1" style="font-size:11px;font-weight:bold;color:#000000;fill:#000000;" y="16"><tspan x="5" y="16" class="highcharts-text-outline" fill="#FFFFFF" stroke="#FFFFFF" stroke-width="2px" stroke-linejoin="round" style="">Oth…</tspan><tspan x="5" y="16">Oth…</tspan><title>Others</title></text></g></g><g class="highcharts-legend" data-z-index="7" transform="translate(78,302)" aria-hidden="true"><rect fill="none" class="highcharts-legend-box" rx="0" ry="0" x="0" y="0" width="444" height="83" visibility="visible"></rect><g data-z-index="1"><g><g class="highcharts-legend-item highcharts-item-series highcharts-color-0" data-z-index="1" transform="translate(8,3)"><text x="21" style="color:#333333;cursor:pointer;font-size:12px;font-weight:bold;fill:#333333;" text-anchor="start" data-z-index="2" y="15"><tspan>Parti Socialiste</tspan></text><rect x="2" y="4" width="12" height="12" fill="#EB001F" rx="6" ry="6" class="highcharts-point" data-z-index="3"></rect></g><g class="highcharts-legend-item highcharts-item-series highcharts-color-1" data-z-index="1" transform="translate(232.234375,3)"><text x="21" y="15" style="color:#333333;cursor:pointer;font-size:12px;font-weight:bold;fill:#333333;" text-anchor="start" data-z-index="2"><tspan>Les Verts</tspan></text><rect x="2" y="4" width="12" height="12" fill="#33cc33" rx="6" ry="6" class="highcharts-point" data-z-index="3"></rect></g><g class="highcharts-legend-item highcharts-item-series highcharts-color-2" data-z-index="1" transform="translate(8,21)"><text x="21" y="15" style="color:#333333;cursor:pointer;font-size:12px;font-weight:bold;fill:#333333;" text-anchor="start" data-z-index="2"><tspan>Parti démocrate-chrétien</tspan></text><rect x="2" y="4" width="12" height="12" fill="orange" rx="6" ry="6" class="highcharts-point" data-z-index="3"></rect></g><g class="highcharts-legend-item highcharts-item-series highcharts-color-3" data-z-index="1" transform="translate(232.234375,21)"><text x="21" y="15" style="color:#333333;cursor:pointer;font-size:12px;font-weight:bold;fill:#333333;" text-anchor="start" data-z-index="2"><tspan>Parti vert-libéraux</tspan></text><rect x="2" y="4" width="12" height="12" fill="#ccff66" rx="6" ry="6" class="highcharts-point" data-z-index="3"></rect></g><g class="highcharts-legend-item highcharts-item-series highcharts-color-4" data-z-index="1" transform="translate(8,39)"><text x="21" y="15" style="color:#333333;cursor:pointer;font-size:12px;font-weight:bold;fill:#333333;" text-anchor="start" data-z-index="2"><tspan>Parti libéral-radical</tspan></text><rect x="2" y="4" width="12" height="12" fill="#009EE0" rx="6" ry="6" class="highcharts-point" data-z-index="3"></rect></g><g class="highcharts-legend-item highcharts-item-series highcharts-color-5" data-z-index="1" transform="translate(232.234375,39)"><text x="21" y="15" style="color:#333333;cursor:pointer;font-size:12px;font-weight:bold;fill:#333333;" text-anchor="start" data-z-index="2"><tspan>Union démocratique du centre</tspan></text><rect x="2" y="4" width="12" height="12" fill="darkgreen" rx="6" ry="6" class="highcharts-point" data-z-index="3"></rect></g><g class="highcharts-legend-item highcharts-item-series highcharts-color-6" data-z-index="1" transform="translate(8,57)"><text x="21" y="15" style="color:#333333;cursor:pointer;font-size:12px;font-weight:bold;fill:#333333;" text-anchor="start" data-z-index="2"><tspan>Others</tspan></text><rect x="2" y="4" width="12" height="12" fill="#000000" rx="6" ry="6" class="highcharts-point" data-z-index="3"></rect></g></g></g></g><text x="590" class="highcharts-credits" text-anchor="end" data-z-index="8" style="cursor:pointer;color:#999999;font-size:9px;fill:#999999;" y="395" aria-label="Chart credits: Highcharts.com" aria-hidden="false">Highcharts.com</text></svg>